<?xml version="1.0" encoding="utf-8"?>
<!-- Generator: Adobe Illustrator 27.4.0, SVG Export Plug-In . SVG Version: 6.00 Build 0)  -->
<svg version="1.1" id="CONTENT" xmlns="http://www.w3.org/2000/svg" xmlns:xlink="http://www.w3.org/1999/xlink" x="0px" y="0px"
	 width="74px" height="28px" viewBox="0 0 74 28" style="enable-background:new 0 0 74 28;" xml:space="preserve">
<g>
	<path d="M10.3,13.9c0,1.9-1.5,3.3-3.4,3.3c-1.9,0-3.3-1.5-3.3-3.4s1.5-3.3,3.4-3.3c0,0,0,0,0,0h3.3V13.9z M14,0h-3.7v6.9H7
		c-3.9,0-7,3.2-6.9,7c0,3.9,3.2,7,7,6.9c3.8,0,6.9-3.2,7-7C14,13.9,14,0,14,0z"/>
	<path d="M51.4,17.2c1.9,0,3.4-1.5,3.4-3.4c0-1.9-1.5-3.4-3.4-3.4c-1.9,0-3.4,1.5-3.4,3.4c0,0,0,0,0,0C48,15.7,49.5,17.2,51.4,17.2
		C51.4,17.3,51.4,17.3,51.4,17.2 M44.4,13.9c0-3.9,3.1-7,7-7s7,3.1,7,7s-3.1,7-7,7S44.4,17.8,44.4,13.9"/>
	<path d="M70.3,13.9c0.1-1.8-1.3-3.4-3.1-3.5c-1.8-0.1-3.4,1.3-3.5,3.1c0,0.1,0,0.2,0,0.4v6.7h-3.7v-6.7c0-3.9,3.1-7,7-7s7,3.1,7,7
		v6.7h-3.7V13.9"/>
	<path d="M35.7,11.4c-0.5-0.4-0.4-1,0.5-1.2c1.6-0.3,3.3,0,4.7,0.7l1.8-2.4c-1.4-1-3.1-1.6-4.8-1.6c0,0-4-0.5-5.7,2.6
		c-0.8,1.7-0.2,3.7,1.4,4.7c1.7,1.1,4.8,1.5,5.7,2c0.9,0.5,0.5,1.3-0.6,1.5c-1.9,0.2-3.8-0.3-5.4-1.3l-1.8,2.4
		c1.5,1.1,3.3,1.9,5.1,2.1c0,0,3.8,0.6,5.9-2c1.2-1.6,0.9-3.9-0.6-5.1c-0.2-0.2-0.5-0.3-0.7-0.4C39.5,12.4,36.6,12,35.7,11.4"/>
	<path d="M18.4,23.4c1.1,0.7,2.3,1.2,3.6,1.3c4,0.1,4.3-4.1,4.3-5.1c-0.9,0.8-2.1,1.3-3.3,1.3c-3.8,0-6.9-3-7-6.8c0,0,0-0.1,0-0.1
		V7.1h3.7c0,0,0,6,0,6.9c0,1.8,1.5,3.3,3.3,3.3s3.3-1.5,3.3-3.3c0,0,0,0,0,0V7.1H30V14c0,6.1,0.3,12.3-5.6,13.7
		c-2.7,0.6-5.6-0.1-7.8-1.8L18.4,23.4z"/>
</g>
<text transform="matrix(1 0 0 1 679.32 435.5364)" style="font-family:'MyriadPro-Regular'; font-size:12px;">000000</text>
</svg>
