<?xml version="1.0" encoding="UTF-8"?>
<svg xmlns="http://www.w3.org/2000/svg" version="1.1" viewBox="0 0 56 48">
  <defs>
    <style>
      .cls-1 {
        fill: #fff;
      }
    </style>
  </defs>
  <!-- Generator: Adobe Illustrator 28.6.0, SVG Export Plug-In . SVG Version: 1.2.0 Build 709)  -->
  <g>
    <g id="Layer_1">
      <g>
        <path class="cls-1" d="M56,16.7V4.7h-14.4v3.5h0c0,1.9-1.6,3.5-3.5,3.5s-3.5-1.6-3.5-3.5h0v-3.5h-13.1v3.5h0c0,1.9-1.6,3.5-3.5,3.5s-3.5-1.6-3.5-3.5h0v-3.5H0v12h56Z"/>
        <path class="cls-1" d="M18,10.2c1,0,1.8-.8,1.8-1.7h0V1.8h0c0-1-.8-1.8-1.8-1.8s-1.8.8-1.8,1.8h0v6.7h0c0,1,.8,1.7,1.8,1.7Z"/>
        <path class="cls-1" d="M38.1,10.2c1,0,1.8-.8,1.8-1.7V1.8h0c0-1-.8-1.8-1.8-1.8s-1.8.8-1.8,1.8h0v6.7c.1.9.9,1.7,1.8,1.7Z"/>
        <g id="Layer_1-2" data-name="Layer_1">
          <path class="cls-1" d="M56,18.7c-11.8,0-46.5,0-56,0,0,9.5,0,19.8,0,29.3,8.6,0,46.5,0,56,0v-29.3ZM32.2,39.4c-1,.8-2.2,1.1-3.5,1.1-3,0-5.3-2.1-5.8-5.5h-1.6l.2-1h1.3v-1.5h-1.5l.2-1h1.4c.6-3.3,2.9-5.6,5.9-5.4s2.3.5,3.3,1.3v2.3c-.9-1-2.1-1.6-3.2-1.6-1.8,0-3.4,1.3-3.8,3.4h5.5l-.3,1h-5.4v.9h0v.5h4.9l-.3,1h-4.5c.5,2.3,1.8,3.5,3.8,3.5s2.3-.5,3.4-1.5v2.3h0Z"/>
        </g>
      </g>
    </g>
  </g>
</svg>