<?xml version="1.0" encoding="utf-8"?>
<!-- Generator: Adobe Illustrator 27.4.0, SVG Export Plug-In . SVG Version: 6.00 Build 0)  -->
<svg version="1.1" id="Layer_1" xmlns="http://www.w3.org/2000/svg" xmlns:xlink="http://www.w3.org/1999/xlink" x="0px" y="0px"
	 width="270.5px" height="46.4px" viewBox="0 0 270.5 46.4" style="enable-background:new 0 0 270.5 46.4;" xml:space="preserve">
<style type="text/css">
	.st0{fill:#C74B2A;}
</style>
<g>
	<path d="M3.7,27.7c0.8,0.8,1.8,1.6,3,2.3c1.2,0.7,2.8,1.1,4.7,1.1c1.6,0,3-0.2,4.1-0.7c1.1-0.5,1.6-1.2,1.6-2.1
		c0-0.7-0.4-1.3-1.2-1.7c-0.8-0.4-1.8-0.7-3-0.9c-1.2-0.3-2.5-0.5-3.9-0.8c-1.4-0.3-2.7-0.7-3.9-1.3C4,23,3,22.2,2.1,21.2
		c-0.8-1-1.2-2.4-1.2-4.1c0-1,0.2-2,0.7-3c0.5-1,1.2-1.8,2.1-2.5c0.9-0.7,2-1.3,3.3-1.7c1.3-0.4,2.8-0.6,4.5-0.6
		c1.9,0,3.5,0.2,4.9,0.7c1.4,0.4,2.5,0.9,3.5,1.5c0.9,0.6,1.6,1.1,2.1,1.6c0.5,0.5,0.8,0.8,0.9,1l-3.6,3.4c-0.3-0.3-0.7-0.7-1.2-1
		c-0.5-0.3-1-0.7-1.7-1c-0.6-0.3-1.4-0.5-2.2-0.7c-0.8-0.2-1.8-0.3-2.8-0.3c-1.4,0-2.5,0.2-3.4,0.6c-0.9,0.4-1.4,1-1.4,1.8
		c0,0.7,0.4,1.3,1.2,1.6c0.8,0.3,1.8,0.6,3,0.9c1.2,0.2,2.5,0.5,3.9,0.8c1.4,0.3,2.7,0.7,3.9,1.3c1.2,0.6,2.2,1.4,3,2.4
		c0.8,1,1.2,2.4,1.2,4.1c0,1.2-0.3,2.4-0.8,3.4c-0.5,1-1.3,1.9-2.3,2.6c-1,0.7-2.2,1.3-3.6,1.7c-1.4,0.4-2.9,0.6-4.6,0.6
		c-1.8,0-3.3-0.2-4.6-0.6c-1.3-0.4-2.4-0.8-3.4-1.4c-0.9-0.5-1.7-1.1-2.3-1.6c-0.6-0.5-1-1-1.3-1.4L3.7,27.7z"/>
	<path d="M25.8,10.1h5.7v12.8c0,1.4,0.1,2.5,0.4,3.3c0.2,0.8,0.6,1.5,1.1,2.1c0.5,0.7,1.3,1.3,2.1,1.7c0.9,0.4,1.9,0.6,3.1,0.6
		c1.2,0,2.2-0.2,3.1-0.6c0.9-0.4,1.6-1,2.1-1.7c0.5-0.6,0.8-1.3,1.1-2.1c0.2-0.8,0.4-1.9,0.4-3.3V10.1h5.7v13c0,1.6-0.2,3.1-0.6,4.6
		c-0.4,1.5-1.2,3-2.5,4.4c-1.2,1.3-2.5,2.3-4.1,3c-1.6,0.7-3.3,1-5.2,1s-3.6-0.3-5.2-1c-1.6-0.7-3-1.7-4.1-3
		c-1.2-1.4-2.1-2.9-2.5-4.4c-0.4-1.5-0.6-3.1-0.6-4.6V10.1z"/>
	<path d="M53.7,24.3c0-1.3,0-2.4,0.1-3.5c0.1-1,0.3-2,0.6-2.7c0.4-1.3,1-2.5,1.8-3.5c0.8-1.1,1.7-2,2.8-2.8c1.1-0.8,2.3-1.4,3.6-1.8
		c1.3-0.4,2.7-0.7,4.2-0.7c2,0,3.8,0.3,5.4,1c1.6,0.7,3,1.6,4.2,2.8c1.2,1.2,2.1,2.5,2.7,4.1c0.6,1.6,1,3.3,1,5.1
		c0,1.9-0.3,3.7-0.9,5.3c-0.6,1.7-1.5,3.1-2.8,4.2c-0.9,0.8-1.9,1.5-2.8,2c-1,0.5-1.9,0.8-2.9,1c-1,0.2-2,0.3-2.9,0.4
		c-1,0-2,0.1-3,0.1h-5.3v11h-5.7V24.3z M64.3,29.9c1,0,1.9,0,2.7-0.1c0.8,0,1.5-0.1,2.1-0.3c0.6-0.1,1.2-0.4,1.7-0.7
		c0.5-0.3,1-0.7,1.5-1.2c0.6-0.6,1.1-1.4,1.5-2.3c0.3-0.9,0.5-1.9,0.5-3c0-1-0.2-2-0.5-2.9c-0.3-0.9-0.9-1.7-1.5-2.4
		c-0.7-0.7-1.5-1.2-2.4-1.6c-0.9-0.4-1.9-0.6-3.1-0.6c-1.1,0-2.1,0.2-3,0.6c-0.9,0.4-1.7,0.9-2.3,1.6c-0.7,0.7-1.2,1.5-1.5,2.4
		c-0.4,0.9-0.5,2-0.5,3.3v7H64.3z"/>
	<path d="M107,31.8c-0.4,0.4-0.9,0.9-1.6,1.4c-0.6,0.5-1.4,1-2.3,1.4c-0.9,0.4-1.9,0.8-3.1,1.1c-1.2,0.3-2.6,0.5-4.1,0.5
		c-2,0-3.8-0.3-5.4-1c-1.6-0.7-3-1.6-4.1-2.9c-1.1-1.2-2-2.6-2.6-4.3c-0.6-1.6-0.9-3.4-0.9-5.3c0-1.9,0.3-3.6,1-5.3
		c0.6-1.6,1.5-3.1,2.7-4.3c1.2-1.2,2.5-2.2,4.1-2.9c1.6-0.7,3.4-1,5.3-1c1.9,0,3.7,0.3,5.3,1c1.6,0.7,3,1.6,4.2,2.9
		c1.2,1.2,2.1,2.6,2.7,4.3c0.6,1.6,1,3.4,1,5.3v1c0,0.4,0,0.8-0.1,1.1h-20c0,0.8,0.2,1.6,0.6,2.4c0.4,0.7,0.9,1.4,1.5,1.9
		c0.6,0.5,1.3,0.9,2.2,1.2c0.8,0.3,1.7,0.4,2.6,0.4c1.9,0,3.4-0.3,4.6-0.9c1.2-0.6,2.2-1.3,3.1-2L107,31.8z M103.1,20
		c-0.3-1.7-1.1-3.1-2.4-4c-1.4-1-3-1.5-4.8-1.5c-0.9,0-1.7,0.1-2.5,0.4c-0.8,0.3-1.5,0.7-2.1,1.2c-0.6,0.5-1.1,1.1-1.5,1.8
		c-0.4,0.7-0.7,1.4-0.8,2.2H103.1z"/>
	<path d="M112.1,22.8c0-2.1,0.3-3.9,0.9-5.3c0.6-1.5,1.4-2.7,2.5-3.8c1.4-1.4,2.9-2.4,4.5-2.9c1.6-0.5,3.4-0.7,5.5-0.7v5.6
		c-1.4,0-2.6,0.2-3.5,0.5c-1,0.3-1.7,0.9-2.4,1.6c-0.6,0.7-1.1,1.4-1.4,2.3c-0.3,0.8-0.4,1.7-0.4,2.7v12.7h-5.7V22.8z"/>
	<path d="M130.9,27.7c0.8,0.8,1.8,1.6,3,2.3c1.2,0.7,2.8,1.1,4.7,1.1c1.7,0,3-0.2,4.1-0.7c1.1-0.5,1.6-1.2,1.6-2.1
		c0-0.7-0.4-1.3-1.2-1.7c-0.8-0.4-1.8-0.7-3-0.9c-1.2-0.3-2.5-0.5-3.9-0.8c-1.4-0.3-2.7-0.7-3.9-1.3c-1.2-0.6-2.2-1.4-3-2.4
		c-0.8-1-1.2-2.4-1.2-4.1c0-1,0.2-2,0.7-3c0.5-1,1.2-1.8,2.1-2.5c0.9-0.7,2-1.3,3.3-1.7c1.3-0.4,2.8-0.6,4.5-0.6
		c1.9,0,3.5,0.2,4.9,0.7c1.4,0.4,2.5,0.9,3.5,1.5c0.9,0.6,1.6,1.1,2.1,1.6c0.5,0.5,0.8,0.8,0.9,1l-3.6,3.4c-0.3-0.3-0.7-0.7-1.2-1
		c-0.5-0.3-1-0.7-1.7-1c-0.6-0.3-1.4-0.5-2.2-0.7c-0.8-0.2-1.8-0.3-2.8-0.3c-1.4,0-2.5,0.2-3.4,0.6c-0.9,0.4-1.4,1-1.4,1.8
		c0,0.7,0.4,1.3,1.2,1.6c0.8,0.3,1.8,0.6,3,0.9c1.2,0.2,2.5,0.5,3.9,0.8c1.4,0.3,2.7,0.7,3.9,1.3c1.2,0.6,2.2,1.4,3,2.4
		c0.8,1,1.2,2.4,1.2,4.1c0,1.2-0.3,2.4-0.8,3.4c-0.5,1-1.3,1.9-2.3,2.6c-1,0.7-2.2,1.3-3.6,1.7c-1.4,0.4-2.9,0.6-4.6,0.6
		c-1.8,0-3.3-0.2-4.6-0.6c-1.3-0.4-2.4-0.8-3.4-1.4c-0.9-0.5-1.7-1.1-2.3-1.6c-0.6-0.5-1-1-1.3-1.4L130.9,27.7z"/>
	<path d="M152.3,22.8c0-1.9,0.3-3.7,1-5.4c0.7-1.6,1.6-3,2.8-4.2c1.2-1.2,2.6-2.1,4.3-2.8c1.6-0.7,3.4-1,5.3-1c1.9,0,3.7,0.3,5.3,1
		c1.6,0.7,3.1,1.6,4.3,2.8c1.2,1.2,2.2,2.6,2.8,4.2c0.7,1.6,1,3.4,1,5.4s-0.3,3.7-1,5.4c-0.7,1.6-1.6,3-2.8,4.2
		c-1.2,1.2-2.6,2.1-4.3,2.8c-1.6,0.7-3.4,1-5.3,1c-1.9,0-3.7-0.3-5.3-1c-1.6-0.7-3.1-1.6-4.3-2.8c-1.2-1.2-2.2-2.6-2.8-4.2
		C152.6,26.5,152.3,24.7,152.3,22.8 M165.7,30.6c1,0,2-0.2,3-0.6c1-0.4,1.8-0.9,2.5-1.6c0.7-0.7,1.3-1.5,1.7-2.5
		c0.4-1,0.6-2,0.6-3.2c0-1.2-0.2-2.2-0.6-3.2c-0.4-1-1-1.8-1.7-2.5c-0.7-0.7-1.5-1.2-2.5-1.6c-1-0.4-1.9-0.6-3-0.6
		c-1.1,0-2.1,0.2-3,0.6c-0.9,0.4-1.8,0.9-2.4,1.6c-0.7,0.7-1.3,1.5-1.7,2.5c-0.4,1-0.6,2-0.6,3.2c0,1.2,0.2,2.2,0.6,3.2
		c0.4,1,1,1.8,1.7,2.5c0.7,0.7,1.5,1.2,2.4,1.6C163.7,30.4,164.7,30.6,165.7,30.6"/>
	<path d="M182.3,22.4c0-1.6,0.2-3.1,0.6-4.6c0.4-1.5,1.2-3,2.5-4.4c1.2-1.3,2.5-2.3,4.1-3c1.6-0.7,3.3-1,5.2-1c1.9,0,3.6,0.3,5.2,1
		c1.6,0.7,3,1.7,4.1,3c1.2,1.4,2.1,2.9,2.5,4.4c0.4,1.5,0.6,3.1,0.6,4.6v13h-5.7V22.7c0-1.4-0.1-2.5-0.4-3.3
		c-0.2-0.8-0.6-1.5-1.1-2.1c-0.6-0.7-1.3-1.3-2.1-1.7c-0.9-0.4-1.9-0.6-3.1-0.6c-1.2,0-2.2,0.2-3.1,0.6c-0.9,0.4-1.6,1-2.1,1.7
		c-0.5,0.6-0.8,1.3-1.1,2.1c-0.2,0.8-0.4,1.9-0.4,3.3v12.8h-5.7V22.4z"/>
	<path d="M210.2,3.5c0-1,0.3-1.8,1-2.5c0.7-0.7,1.5-1,2.5-1c1,0,1.8,0.3,2.5,1c0.7,0.7,1,1.5,1,2.5c0,1-0.3,1.8-1,2.5
		c-0.7,0.7-1.5,1-2.5,1c-1,0-1.8-0.3-2.5-1C210.5,5.3,210.2,4.5,210.2,3.5 M210.9,10.1h5.7v25.3h-5.7V10.1z"/>
	<path d="M242.8,32.3c-1.2,1.2-2.6,2.2-4.2,2.9c-1.7,0.7-3.4,1-5.4,1c-1.9,0-3.7-0.3-5.3-1c-1.6-0.7-3.1-1.6-4.3-2.8
		c-1.2-1.2-2.2-2.6-2.8-4.2c-0.7-1.6-1-3.4-1-5.4s0.3-3.7,1-5.4c0.7-1.6,1.6-3,2.8-4.2c1.2-1.2,2.6-2.1,4.3-2.8c1.6-0.7,3.4-1,5.3-1
		c1.9,0,3.7,0.3,5.4,1c1.6,0.7,3.1,1.6,4.2,2.9l-3.8,3.9c-0.7-0.7-1.6-1.2-2.6-1.6c-1-0.4-2.1-0.6-3.3-0.6c-1.1,0-2.1,0.2-3,0.6
		c-0.9,0.4-1.8,0.9-2.4,1.6c-0.7,0.7-1.3,1.5-1.7,2.5c-0.4,1-0.6,2-0.6,3.2c0,1.2,0.2,2.2,0.6,3.2c0.4,1,1,1.8,1.7,2.5
		c0.7,0.7,1.5,1.2,2.4,1.6c0.9,0.4,1.9,0.6,3,0.6c1.2,0,2.3-0.2,3.3-0.6c1-0.4,1.8-0.9,2.6-1.6L242.8,32.3z"/>
	<path class="st0" d="M263,36.2l-6.7,0l0-18.8c0-8.4,5.2-13.8,13.3-13.8h0.9v6.7h-0.9c-4.4,0-6.6,2.4-6.6,7.1L263,36.2z"/>
	<path class="st0" d="M263,36.2l-6.7,0l0-18.8c0-8.4,5.2-13.8,13.3-13.8h0.9v6.7h-0.9c-4.4,0-6.6,2.4-6.6,7.1L263,36.2z"/>
</g>
</svg>
