<svg data-name="Layer 1" xmlns="http://www.w3.org/2000/svg" viewBox="0 0 2778.15 1033.4"><path d="M450.46 522c250.6-251 584-389.2 938.8-389.2s687.1 137.9 937.5 388.3c143.2 143.2 249.5 313.3 314.4 499 2.8 8 10.2 13.3 18.7 13.3h98.4c13.4 0 23.1-13 18.9-25.8-70.1-216.5-191-414.8-356.5-580.4C2145.26 151.7 1778.96 0 1389.46 0s-757.2 152-1032.9 428.1C191.36 593.5 70.86 791.5.96 1007.5c-4.1 12.8 5.5 25.8 19 25.8h98.4c8.5 0 15.9-5.4 18.7-13.3 64.6-185.1 170.6-355 313.4-498Z" style="fill:#fc5b05"/></svg>